<mxfile host="app.diagrams.net" modified="2024-06-03T23:34:28.909Z" agent="Mozilla/5.0 (Windows NT 10.0; Win64; x64) AppleWebKit/537.36 (KHTML, like Gecko) Chrome/125.0.0.0 Safari/537.36 Edg/125.0.0.0" etag="3-IkvepTzMnQcsxMc3zX" version="24.4.13" type="github">
  <diagram name="PÃ¡gina-1" id="2BS3NbkZbuiiLCTzzVOg">
    <mxGraphModel dx="1002" dy="569" grid="1" gridSize="10" guides="1" tooltips="1" connect="1" arrows="1" fold="1" page="1" pageScale="1" pageWidth="827" pageHeight="1169" math="0" shadow="0">
      <root>
        <mxCell id="0" />
        <mxCell id="1" parent="0" />
        <mxCell id="RUdzpIB8_MHTcrBP6uff-3" value="ACTIVITIES" style="strokeWidth=2;html=1;shape=mxgraph.flowchart.start_2;whiteSpace=wrap;" vertex="1" parent="1">
          <mxGeometry x="364" y="50" width="100" height="100" as="geometry" />
        </mxCell>
        <mxCell id="RUdzpIB8_MHTcrBP6uff-9" value="LOGIN USER" style="rounded=1;whiteSpace=wrap;html=1;absoluteArcSize=1;arcSize=14;strokeWidth=2;" vertex="1" parent="1">
          <mxGeometry x="210" y="190" width="100" height="100" as="geometry" />
        </mxCell>
        <mxCell id="RUdzpIB8_MHTcrBP6uff-10" value="REGISTER USER" style="rounded=1;whiteSpace=wrap;html=1;absoluteArcSize=1;arcSize=14;strokeWidth=2;" vertex="1" parent="1">
          <mxGeometry x="90" y="190" width="100" height="100" as="geometry" />
        </mxCell>
        <mxCell id="RUdzpIB8_MHTcrBP6uff-11" value="BUSSINESS REGISTER" style="rounded=1;whiteSpace=wrap;html=1;absoluteArcSize=1;arcSize=14;strokeWidth=2;" vertex="1" parent="1">
          <mxGeometry x="330" y="190" width="100" height="100" as="geometry" />
        </mxCell>
        <mxCell id="RUdzpIB8_MHTcrBP6uff-12" value="SHOW BUSSINESS DATA" style="rounded=1;whiteSpace=wrap;html=1;absoluteArcSize=1;arcSize=14;strokeWidth=2;" vertex="1" parent="1">
          <mxGeometry x="450" y="190" width="100" height="100" as="geometry" />
        </mxCell>
        <mxCell id="RUdzpIB8_MHTcrBP6uff-13" value="SHOW BUSSINESS LOCATION" style="rounded=1;whiteSpace=wrap;html=1;absoluteArcSize=1;arcSize=14;strokeWidth=2;" vertex="1" parent="1">
          <mxGeometry x="570" y="190" width="100" height="100" as="geometry" />
        </mxCell>
        <mxCell id="RUdzpIB8_MHTcrBP6uff-14" value="ADD FAVORITES BUSSINESS FOR USER" style="rounded=1;whiteSpace=wrap;html=1;absoluteArcSize=1;arcSize=14;strokeWidth=2;" vertex="1" parent="1">
          <mxGeometry x="90" y="310" width="100" height="100" as="geometry" />
        </mxCell>
        <mxCell id="RUdzpIB8_MHTcrBP6uff-15" value="SHOW FAVORITE BUSSINESS" style="rounded=1;whiteSpace=wrap;html=1;absoluteArcSize=1;arcSize=14;strokeWidth=2;" vertex="1" parent="1">
          <mxGeometry x="210" y="310" width="100" height="100" as="geometry" />
        </mxCell>
        <mxCell id="RUdzpIB8_MHTcrBP6uff-16" value="NOTIFICATIONS ABOUT BUSSINESS" style="rounded=1;whiteSpace=wrap;html=1;absoluteArcSize=1;arcSize=14;strokeWidth=2;" vertex="1" parent="1">
          <mxGeometry x="330" y="310" width="100" height="100" as="geometry" />
        </mxCell>
      </root>
    </mxGraphModel>
  </diagram>
</mxfile>
